<mxfile host="drawio-plugin" modified="2022-03-24T11:25:14.811Z" agent="5.0 (X11; Linux x86_64) AppleWebKit/537.36 (KHTML, like Gecko) Chrome/89.0.4389.114 Safari/537.36" etag="J2bBRc9xpZ_xZDap-xQQ" version="15.5.4" type="embed"><diagram id="C5RBs43oDa-KdzZeNtuy" name="Page-1"><mxGraphModel dx="2430" dy="2902" grid="1" gridSize="10" guides="1" tooltips="1" connect="1" arrows="1" fold="1" page="1" pageScale="1" pageWidth="827" pageHeight="1169" math="0" shadow="0"><root><mxCell id="WIyWlLk6GJQsqaUBKTNV-0"/><mxCell id="WIyWlLk6GJQsqaUBKTNV-1" parent="WIyWlLk6GJQsqaUBKTNV-0"/><mxCell id="184" style="edgeStyle=orthogonalEdgeStyle;rounded=0;orthogonalLoop=1;jettySize=auto;html=1;exitX=0.5;exitY=0;exitDx=0;exitDy=0;endArrow=none;endFill=0;entryX=0.44;entryY=1.074;entryDx=0;entryDy=0;entryPerimeter=0;" parent="WIyWlLk6GJQsqaUBKTNV-1" target="263" edge="1"><mxGeometry relative="1" as="geometry"><mxPoint x="443.66" y="246" as="sourcePoint"/><mxPoint x="444.18000000000023" y="198.26000000000022" as="targetPoint"/><Array as="points"><mxPoint x="444" y="246"/></Array></mxGeometry></mxCell><mxCell id="280" style="edgeStyle=orthogonalEdgeStyle;rounded=0;orthogonalLoop=1;jettySize=auto;html=1;exitX=0.5;exitY=0;exitDx=0;exitDy=0;entryX=1;entryY=0.5;entryDx=0;entryDy=0;startArrow=none;startFill=0;endArrow=none;endFill=0;" edge="1" parent="WIyWlLk6GJQsqaUBKTNV-1" source="21" target="222"><mxGeometry relative="1" as="geometry"/></mxCell><mxCell id="21" value="Order" style="swimlane;fontStyle=1;align=center;verticalAlign=top;childLayout=stackLayout;horizontal=1;startSize=26;horizontalStack=0;resizeParent=1;resizeParentMax=0;resizeLast=0;collapsible=1;marginBottom=0;swimlaneLine=1;" parent="WIyWlLk6GJQsqaUBKTNV-1" vertex="1"><mxGeometry x="660" y="53" width="160" height="156" as="geometry"/></mxCell><mxCell id="22" value="+dishes_list" style="text;strokeColor=none;fillColor=none;align=left;verticalAlign=top;spacingLeft=4;spacingRight=4;overflow=hidden;rotatable=0;points=[[0,0.5],[1,0.5]];portConstraint=eastwest;" parent="21" vertex="1"><mxGeometry y="26" width="160" height="26" as="geometry"/></mxCell><mxCell id="25" value="+drinks_list" style="text;strokeColor=none;fillColor=none;align=left;verticalAlign=top;spacingLeft=4;spacingRight=4;overflow=hidden;rotatable=0;points=[[0,0.5],[1,0.5]];portConstraint=eastwest;" parent="21" vertex="1"><mxGeometry y="52" width="160" height="26" as="geometry"/></mxCell><mxCell id="26" value="+price&#10;" style="text;strokeColor=none;fillColor=none;align=left;verticalAlign=top;spacingLeft=4;spacingRight=4;overflow=hidden;rotatable=0;points=[[0,0.5],[1,0.5]];portConstraint=eastwest;" parent="21" vertex="1"><mxGeometry y="78" width="160" height="26" as="geometry"/></mxCell><mxCell id="27" value="~costumer" style="text;strokeColor=none;fillColor=none;align=left;verticalAlign=top;spacingLeft=4;spacingRight=4;overflow=hidden;rotatable=0;points=[[0,0.5],[1,0.5]];portConstraint=eastwest;" parent="21" vertex="1"><mxGeometry y="104" width="160" height="26" as="geometry"/></mxCell><mxCell id="198" value="+delivery" style="text;strokeColor=none;fillColor=none;align=left;verticalAlign=top;spacingLeft=4;spacingRight=4;overflow=hidden;rotatable=0;points=[[0,0.5],[1,0.5]];portConstraint=eastwest;" vertex="1" parent="21"><mxGeometry y="130" width="160" height="26" as="geometry"/></mxCell><mxCell id="293" style="edgeStyle=orthogonalEdgeStyle;rounded=0;orthogonalLoop=1;jettySize=auto;html=1;startArrow=none;startFill=0;endArrow=none;endFill=0;" edge="1" parent="WIyWlLk6GJQsqaUBKTNV-1" target="52"><mxGeometry relative="1" as="geometry"><mxPoint x="190" y="-264" as="sourcePoint"/><Array as="points"><mxPoint x="190" y="-294"/><mxPoint x="100" y="-294"/></Array></mxGeometry></mxCell><mxCell id="42" value="Menu" style="swimlane;fontStyle=1;align=center;verticalAlign=top;childLayout=stackLayout;horizontal=1;startSize=26;horizontalStack=0;resizeParent=1;resizeParentMax=0;resizeLast=0;collapsible=1;marginBottom=0;" parent="WIyWlLk6GJQsqaUBKTNV-1" vertex="1"><mxGeometry x="110" y="-244" width="160" height="78" as="geometry"/></mxCell><mxCell id="43" value="+dishes_list" style="text;strokeColor=none;fillColor=none;align=left;verticalAlign=top;spacingLeft=4;spacingRight=4;overflow=hidden;rotatable=0;points=[[0,0.5],[1,0.5]];portConstraint=eastwest;" parent="42" vertex="1"><mxGeometry y="26" width="160" height="26" as="geometry"/></mxCell><mxCell id="46" value="+drinks_list" style="text;strokeColor=none;fillColor=none;align=left;verticalAlign=top;spacingLeft=4;spacingRight=4;overflow=hidden;rotatable=0;points=[[0,0.5],[1,0.5]];portConstraint=eastwest;" parent="42" vertex="1"><mxGeometry y="52" width="160" height="26" as="geometry"/></mxCell><mxCell id="303" style="edgeStyle=orthogonalEdgeStyle;rounded=0;orthogonalLoop=1;jettySize=auto;html=1;exitX=1;exitY=0.25;exitDx=0;exitDy=0;entryX=0;entryY=0.5;entryDx=0;entryDy=0;startArrow=none;startFill=0;endArrow=none;endFill=0;" edge="1" parent="WIyWlLk6GJQsqaUBKTNV-1" source="47" target="215"><mxGeometry relative="1" as="geometry"><Array as="points"><mxPoint x="170" y="-414"/><mxPoint x="374" y="-414"/></Array></mxGeometry></mxCell><mxCell id="47" value="Dishes" style="swimlane;fontStyle=0;childLayout=stackLayout;horizontal=1;startSize=26;fillColor=none;horizontalStack=0;resizeParent=1;resizeParentMax=0;resizeLast=0;collapsible=1;marginBottom=0;align=center;" parent="WIyWlLk6GJQsqaUBKTNV-1" vertex="1"><mxGeometry x="30" y="-414" width="140" height="104" as="geometry"/></mxCell><mxCell id="48" value="+name&#10;" style="text;strokeColor=none;fillColor=none;align=left;verticalAlign=top;spacingLeft=4;spacingRight=4;overflow=hidden;rotatable=0;points=[[0,0.5],[1,0.5]];portConstraint=eastwest;" parent="47" vertex="1"><mxGeometry y="26" width="140" height="26" as="geometry"/></mxCell><mxCell id="51" value="+available" style="text;strokeColor=none;fillColor=none;align=left;verticalAlign=top;spacingLeft=4;spacingRight=4;overflow=hidden;rotatable=0;points=[[0,0.5],[1,0.5]];portConstraint=eastwest;" parent="47" vertex="1"><mxGeometry y="52" width="140" height="26" as="geometry"/></mxCell><mxCell id="52" value="+price" style="text;strokeColor=none;fillColor=none;align=left;verticalAlign=top;spacingLeft=4;spacingRight=4;overflow=hidden;rotatable=0;points=[[0,0.5],[1,0.5]];portConstraint=eastwest;" parent="47" vertex="1"><mxGeometry y="78" width="140" height="26" as="geometry"/></mxCell><mxCell id="304" style="edgeStyle=orthogonalEdgeStyle;rounded=0;orthogonalLoop=1;jettySize=auto;html=1;exitX=0.5;exitY=0;exitDx=0;exitDy=0;startArrow=none;startFill=0;endArrow=none;endFill=0;" edge="1" parent="WIyWlLk6GJQsqaUBKTNV-1" source="53"><mxGeometry relative="1" as="geometry"><mxPoint x="280" y="-414" as="targetPoint"/></mxGeometry></mxCell><mxCell id="53" value="Drinks" style="swimlane;fontStyle=0;childLayout=stackLayout;horizontal=1;startSize=26;fillColor=none;horizontalStack=0;resizeParent=1;resizeParentMax=0;resizeLast=0;collapsible=1;marginBottom=0;align=center;" parent="WIyWlLk6GJQsqaUBKTNV-1" vertex="1"><mxGeometry x="210" y="-384" width="140" height="52" as="geometry"/></mxCell><mxCell id="58" value="+alcohol" style="text;strokeColor=none;fillColor=none;align=left;verticalAlign=top;spacingLeft=4;spacingRight=4;overflow=hidden;rotatable=0;points=[[0,0.5],[1,0.5]];portConstraint=eastwest;" parent="53" vertex="1"><mxGeometry y="26" width="140" height="26" as="geometry"/></mxCell><mxCell id="194" value="Person" style="swimlane;fontStyle=1;align=center;verticalAlign=top;childLayout=stackLayout;horizontal=1;startSize=26;horizontalStack=0;resizeParent=1;resizeParentMax=0;resizeLast=0;collapsible=1;marginBottom=0;" vertex="1" parent="WIyWlLk6GJQsqaUBKTNV-1"><mxGeometry x="-190" y="45" width="160" height="86" as="geometry"/></mxCell><mxCell id="195" value="+name" style="text;strokeColor=none;fillColor=none;align=left;verticalAlign=top;spacingLeft=4;spacingRight=4;overflow=hidden;rotatable=0;points=[[0,0.5],[1,0.5]];portConstraint=eastwest;" vertex="1" parent="194"><mxGeometry y="26" width="160" height="26" as="geometry"/></mxCell><mxCell id="196" value="" style="line;strokeWidth=1;fillColor=none;align=left;verticalAlign=middle;spacingTop=-1;spacingLeft=3;spacingRight=3;rotatable=0;labelPosition=right;points=[];portConstraint=eastwest;" vertex="1" parent="194"><mxGeometry y="52" width="160" height="8" as="geometry"/></mxCell><mxCell id="197" value="-_do_something" style="text;strokeColor=none;fillColor=none;align=left;verticalAlign=top;spacingLeft=4;spacingRight=4;overflow=hidden;rotatable=0;points=[[0,0.5],[1,0.5]];portConstraint=eastwest;" vertex="1" parent="194"><mxGeometry y="60" width="160" height="26" as="geometry"/></mxCell><mxCell id="286" style="edgeStyle=orthogonalEdgeStyle;rounded=0;orthogonalLoop=1;jettySize=auto;html=1;exitX=0.5;exitY=0;exitDx=0;exitDy=0;startArrow=none;startFill=0;endArrow=none;endFill=0;" edge="1" parent="WIyWlLk6GJQsqaUBKTNV-1" source="210"><mxGeometry relative="1" as="geometry"><mxPoint y="86" as="targetPoint"/></mxGeometry></mxCell><mxCell id="210" value="Chef" style="swimlane;fontStyle=1;align=center;verticalAlign=top;childLayout=stackLayout;horizontal=1;startSize=26;horizontalStack=0;resizeParent=1;resizeParentMax=0;resizeLast=0;collapsible=1;marginBottom=0;" vertex="1" parent="WIyWlLk6GJQsqaUBKTNV-1"><mxGeometry x="374" y="-450" width="160" height="320" as="geometry"/></mxCell><mxCell id="215" value="-_orders_list" style="text;strokeColor=none;fillColor=none;align=left;verticalAlign=top;spacingLeft=4;spacingRight=4;overflow=hidden;rotatable=0;points=[[0,0.5],[1,0.5]];portConstraint=eastwest;" vertex="1" parent="210"><mxGeometry y="26" width="160" height="26" as="geometry"/></mxCell><mxCell id="216" value="-_cooked_order_list" style="text;strokeColor=none;fillColor=none;align=left;verticalAlign=top;spacingLeft=4;spacingRight=4;overflow=hidden;rotatable=0;points=[[0,0.5],[1,0.5]];portConstraint=eastwest;" vertex="1" parent="210"><mxGeometry y="52" width="160" height="26" as="geometry"/></mxCell><mxCell id="211" value="-_cooked_delivery_order" style="text;strokeColor=none;fillColor=none;align=left;verticalAlign=top;spacingLeft=4;spacingRight=4;overflow=hidden;rotatable=0;points=[[0,0.5],[1,0.5]];portConstraint=eastwest;" vertex="1" parent="210"><mxGeometry y="78" width="160" height="26" as="geometry"/></mxCell><mxCell id="212" value="" style="line;strokeWidth=1;fillColor=none;align=left;verticalAlign=middle;spacingTop=-1;spacingLeft=3;spacingRight=3;rotatable=0;labelPosition=right;points=[];portConstraint=eastwest;" vertex="1" parent="210"><mxGeometry y="104" width="160" height="8" as="geometry"/></mxCell><mxCell id="213" value="+take_order()" style="text;strokeColor=none;fillColor=none;align=left;verticalAlign=top;spacingLeft=4;spacingRight=4;overflow=hidden;rotatable=0;points=[[0,0.5],[1,0.5]];portConstraint=eastwest;" vertex="1" parent="210"><mxGeometry y="112" width="160" height="26" as="geometry"/></mxCell><mxCell id="217" value="+take_delivery_order()" style="text;strokeColor=none;fillColor=none;align=left;verticalAlign=top;spacingLeft=4;spacingRight=4;overflow=hidden;rotatable=0;points=[[0,0.5],[1,0.5]];portConstraint=eastwest;" vertex="1" parent="210"><mxGeometry y="138" width="160" height="26" as="geometry"/></mxCell><mxCell id="218" value="+cook_order()" style="text;strokeColor=none;fillColor=none;align=left;verticalAlign=top;spacingLeft=4;spacingRight=4;overflow=hidden;rotatable=0;points=[[0,0.5],[1,0.5]];portConstraint=eastwest;" vertex="1" parent="210"><mxGeometry y="164" width="160" height="26" as="geometry"/></mxCell><mxCell id="219" value="+give_order_to_waiter()" style="text;strokeColor=none;fillColor=none;align=left;verticalAlign=top;spacingLeft=4;spacingRight=4;overflow=hidden;rotatable=0;points=[[0,0.5],[1,0.5]];portConstraint=eastwest;" vertex="1" parent="210"><mxGeometry y="190" width="160" height="26" as="geometry"/></mxCell><mxCell id="220" value="+give_delivery_order_to_courier()" style="text;strokeColor=none;fillColor=none;align=left;verticalAlign=top;spacingLeft=4;spacingRight=4;overflow=hidden;rotatable=0;points=[[0,0.5],[1,0.5]];portConstraint=eastwest;" vertex="1" parent="210"><mxGeometry y="216" width="160" height="26" as="geometry"/></mxCell><mxCell id="223" value="+add_to_menu()" style="text;strokeColor=none;fillColor=none;align=left;verticalAlign=top;spacingLeft=4;spacingRight=4;overflow=hidden;rotatable=0;points=[[0,0.5],[1,0.5]];portConstraint=eastwest;" vertex="1" parent="210"><mxGeometry y="242" width="160" height="26" as="geometry"/></mxCell><mxCell id="222" value="+remove_from_menu()" style="text;strokeColor=none;fillColor=none;align=left;verticalAlign=top;spacingLeft=4;spacingRight=4;overflow=hidden;rotatable=0;points=[[0,0.5],[1,0.5]];portConstraint=eastwest;" vertex="1" parent="210"><mxGeometry y="268" width="160" height="26" as="geometry"/></mxCell><mxCell id="224" value="+update_available()" style="text;strokeColor=none;fillColor=none;align=left;verticalAlign=top;spacingLeft=4;spacingRight=4;overflow=hidden;rotatable=0;points=[[0,0.5],[1,0.5]];portConstraint=eastwest;" vertex="1" parent="210"><mxGeometry y="294" width="160" height="26" as="geometry"/></mxCell><mxCell id="291" style="edgeStyle=orthogonalEdgeStyle;rounded=0;orthogonalLoop=1;jettySize=auto;html=1;exitX=0.5;exitY=0;exitDx=0;exitDy=0;entryX=0.5;entryY=1;entryDx=0;entryDy=0;startArrow=none;startFill=0;endArrow=none;endFill=0;" edge="1" parent="WIyWlLk6GJQsqaUBKTNV-1" source="225" target="264"><mxGeometry relative="1" as="geometry"/></mxCell><mxCell id="225" value="Courier" style="swimlane;fontStyle=1;align=center;verticalAlign=top;childLayout=stackLayout;horizontal=1;startSize=26;horizontalStack=0;resizeParent=1;resizeParentMax=0;resizeLast=0;collapsible=1;marginBottom=0;" vertex="1" parent="WIyWlLk6GJQsqaUBKTNV-1"><mxGeometry x="364" y="486" width="160" height="190" as="geometry"/></mxCell><mxCell id="229" value="_delivery_order" style="text;strokeColor=none;fillColor=none;align=left;verticalAlign=top;spacingLeft=4;spacingRight=4;overflow=hidden;rotatable=0;points=[[0,0.5],[1,0.5]];portConstraint=eastwest;" vertex="1" parent="225"><mxGeometry y="26" width="160" height="26" as="geometry"/></mxCell><mxCell id="226" value="_order_on_hands" style="text;strokeColor=none;fillColor=none;align=left;verticalAlign=top;spacingLeft=4;spacingRight=4;overflow=hidden;rotatable=0;points=[[0,0.5],[1,0.5]];portConstraint=eastwest;" vertex="1" parent="225"><mxGeometry y="52" width="160" height="26" as="geometry"/></mxCell><mxCell id="227" value="" style="line;strokeWidth=1;fillColor=none;align=left;verticalAlign=middle;spacingTop=-1;spacingLeft=3;spacingRight=3;rotatable=0;labelPosition=right;points=[];portConstraint=eastwest;" vertex="1" parent="225"><mxGeometry y="78" width="160" height="8" as="geometry"/></mxCell><mxCell id="230" value="+take_delivery_order()" style="text;strokeColor=none;fillColor=none;align=left;verticalAlign=top;spacingLeft=4;spacingRight=4;overflow=hidden;rotatable=0;points=[[0,0.5],[1,0.5]];portConstraint=eastwest;" vertex="1" parent="225"><mxGeometry y="86" width="160" height="26" as="geometry"/></mxCell><mxCell id="231" value="+give_order_to_chef()" style="text;strokeColor=none;fillColor=none;align=left;verticalAlign=top;spacingLeft=4;spacingRight=4;overflow=hidden;rotatable=0;points=[[0,0.5],[1,0.5]];portConstraint=eastwest;" vertex="1" parent="225"><mxGeometry y="112" width="160" height="26" as="geometry"/></mxCell><mxCell id="232" value="+take_cooked_delivery_order()" style="text;strokeColor=none;fillColor=none;align=left;verticalAlign=top;spacingLeft=4;spacingRight=4;overflow=hidden;rotatable=0;points=[[0,0.5],[1,0.5]];portConstraint=eastwest;" vertex="1" parent="225"><mxGeometry y="138" width="160" height="26" as="geometry"/></mxCell><mxCell id="228" value="+deliver_the_order()" style="text;strokeColor=none;fillColor=none;align=left;verticalAlign=top;spacingLeft=4;spacingRight=4;overflow=hidden;rotatable=0;points=[[0,0.5],[1,0.5]];portConstraint=eastwest;" vertex="1" parent="225"><mxGeometry y="164" width="160" height="26" as="geometry"/></mxCell><mxCell id="305" style="edgeStyle=orthogonalEdgeStyle;rounded=0;orthogonalLoop=1;jettySize=auto;html=1;exitX=0.75;exitY=0;exitDx=0;exitDy=0;entryX=0;entryY=0.5;entryDx=0;entryDy=0;startArrow=block;startFill=1;endArrow=none;endFill=0;" edge="1" parent="WIyWlLk6GJQsqaUBKTNV-1" source="233" target="270"><mxGeometry relative="1" as="geometry"/></mxCell><mxCell id="233" value="OrderCheckMixin" style="swimlane;fontStyle=1;align=center;verticalAlign=top;childLayout=stackLayout;horizontal=1;startSize=26;horizontalStack=0;resizeParent=1;resizeParentMax=0;resizeLast=0;collapsible=1;marginBottom=0;" vertex="1" parent="WIyWlLk6GJQsqaUBKTNV-1"><mxGeometry x="150" y="434" width="160" height="52" as="geometry"/></mxCell><mxCell id="236" value="-_order_validation" style="text;strokeColor=none;fillColor=none;align=left;verticalAlign=top;spacingLeft=4;spacingRight=4;overflow=hidden;rotatable=0;points=[[0,0.5],[1,0.5]];portConstraint=eastwest;" vertex="1" parent="233"><mxGeometry y="26" width="160" height="26" as="geometry"/></mxCell><mxCell id="281" style="edgeStyle=orthogonalEdgeStyle;rounded=0;orthogonalLoop=1;jettySize=auto;html=1;exitX=0.5;exitY=0;exitDx=0;exitDy=0;entryX=1;entryY=0.5;entryDx=0;entryDy=0;startArrow=none;startFill=0;endArrow=circlePlus;endFill=0;" edge="1" parent="WIyWlLk6GJQsqaUBKTNV-1" source="241" target="220"><mxGeometry relative="1" as="geometry"><Array as="points"><mxPoint x="937" y="-221"/></Array></mxGeometry></mxCell><mxCell id="282" style="edgeStyle=orthogonalEdgeStyle;rounded=0;orthogonalLoop=1;jettySize=auto;html=1;exitX=0.25;exitY=0;exitDx=0;exitDy=0;entryX=1;entryY=0.5;entryDx=0;entryDy=0;startArrow=none;startFill=0;endArrow=none;endFill=0;" edge="1" parent="WIyWlLk6GJQsqaUBKTNV-1" source="241" target="256"><mxGeometry relative="1" as="geometry"><Array as="points"><mxPoint x="897" y="6"/><mxPoint x="534" y="6"/></Array></mxGeometry></mxCell><mxCell id="241" value="CookedOrder" style="swimlane;fontStyle=1;align=center;verticalAlign=top;childLayout=stackLayout;horizontal=1;startSize=26;horizontalStack=0;resizeParent=1;resizeParentMax=0;resizeLast=0;collapsible=1;marginBottom=0;" vertex="1" parent="WIyWlLk6GJQsqaUBKTNV-1"><mxGeometry x="857" y="66" width="160" height="130" as="geometry"/></mxCell><mxCell id="245" value="~costumer" style="text;strokeColor=none;fillColor=none;align=left;verticalAlign=top;spacingLeft=4;spacingRight=4;overflow=hidden;rotatable=0;points=[[0,0.5],[1,0.5]];portConstraint=eastwest;" vertex="1" parent="241"><mxGeometry y="26" width="160" height="26" as="geometry"/></mxCell><mxCell id="246" value="+dishes_list" style="text;strokeColor=none;fillColor=none;align=left;verticalAlign=top;spacingLeft=4;spacingRight=4;overflow=hidden;rotatable=0;points=[[0,0.5],[1,0.5]];portConstraint=eastwest;" vertex="1" parent="241"><mxGeometry y="52" width="160" height="26" as="geometry"/></mxCell><mxCell id="247" value="+drinks_list" style="text;strokeColor=none;fillColor=none;align=left;verticalAlign=top;spacingLeft=4;spacingRight=4;overflow=hidden;rotatable=0;points=[[0,0.5],[1,0.5]];portConstraint=eastwest;" vertex="1" parent="241"><mxGeometry y="78" width="160" height="26" as="geometry"/></mxCell><mxCell id="242" value="+price" style="text;strokeColor=none;fillColor=none;align=left;verticalAlign=top;spacingLeft=4;spacingRight=4;overflow=hidden;rotatable=0;points=[[0,0.5],[1,0.5]];portConstraint=eastwest;" vertex="1" parent="241"><mxGeometry y="104" width="160" height="26" as="geometry"/></mxCell><mxCell id="307" style="edgeStyle=orthogonalEdgeStyle;rounded=0;orthogonalLoop=1;jettySize=auto;html=1;exitX=0.5;exitY=0;exitDx=0;exitDy=0;entryX=0.5;entryY=1.038;entryDx=0;entryDy=0;entryPerimeter=0;startArrow=none;startFill=0;endArrow=none;endFill=0;" edge="1" parent="WIyWlLk6GJQsqaUBKTNV-1" source="255" target="224"><mxGeometry relative="1" as="geometry"><Array as="points"><mxPoint x="450" y="-14"/><mxPoint x="450" y="-129"/></Array></mxGeometry></mxCell><mxCell id="255" value="Customer" style="swimlane;fontStyle=2;align=center;verticalAlign=top;childLayout=stackLayout;horizontal=1;startSize=26;horizontalStack=0;resizeParent=1;resizeLast=0;collapsible=1;marginBottom=0;rounded=0;shadow=0;strokeWidth=1;" vertex="1" parent="WIyWlLk6GJQsqaUBKTNV-1"><mxGeometry x="374" y="-14" width="160" height="186" as="geometry"><mxRectangle x="170" y="120" width="160" height="26" as="alternateBounds"/></mxGeometry></mxCell><mxCell id="256" value="+age" style="text;align=left;verticalAlign=top;spacingLeft=4;spacingRight=4;overflow=hidden;rotatable=0;points=[[0,0.5],[1,0.5]];portConstraint=eastwest;rounded=0;shadow=0;html=0;" vertex="1" parent="255"><mxGeometry y="26" width="160" height="26" as="geometry"/></mxCell><mxCell id="257" value="+adress" style="text;align=left;verticalAlign=top;spacingLeft=4;spacingRight=4;overflow=hidden;rotatable=0;points=[[0,0.5],[1,0.5]];portConstraint=eastwest;rounded=0;shadow=0;html=0;" vertex="1" parent="255"><mxGeometry y="52" width="160" height="26" as="geometry"/></mxCell><mxCell id="258" value="" style="line;html=1;strokeWidth=1;align=left;verticalAlign=middle;spacingTop=-1;spacingLeft=3;spacingRight=3;rotatable=0;labelPosition=right;points=[];portConstraint=eastwest;" vertex="1" parent="255"><mxGeometry y="78" width="160" height="8" as="geometry"/></mxCell><mxCell id="259" value="-food_choice()" style="text;html=1;align=left;verticalAlign=middle;resizable=0;points=[];autosize=1;strokeColor=none;fillColor=none;" vertex="1" parent="255"><mxGeometry y="86" width="160" height="20" as="geometry"/></mxCell><mxCell id="260" value="+eat_and_pay()" style="text;html=1;align=left;verticalAlign=middle;resizable=0;points=[];autosize=1;strokeColor=none;fillColor=none;" vertex="1" parent="255"><mxGeometry y="106" width="160" height="20" as="geometry"/></mxCell><mxCell id="261" value="+make_order()" style="text;html=1;align=left;verticalAlign=middle;resizable=0;points=[];autosize=1;strokeColor=none;fillColor=none;" vertex="1" parent="255"><mxGeometry y="126" width="160" height="20" as="geometry"/></mxCell><mxCell id="262" value="+make_delivery_order()" style="text;html=1;align=left;verticalAlign=middle;resizable=0;points=[];autosize=1;strokeColor=none;fillColor=none;" vertex="1" parent="255"><mxGeometry y="146" width="160" height="20" as="geometry"/></mxCell><mxCell id="263" value="+pay()" style="text;html=1;align=left;verticalAlign=middle;resizable=0;points=[];autosize=1;strokeColor=none;fillColor=none;" vertex="1" parent="255"><mxGeometry y="166" width="160" height="20" as="geometry"/></mxCell><mxCell id="264" value="Waiter" style="swimlane;fontStyle=1;align=center;verticalAlign=top;childLayout=stackLayout;horizontal=1;startSize=26;horizontalStack=0;resizeParent=1;resizeParentMax=0;resizeLast=0;collapsible=1;marginBottom=0;" vertex="1" parent="WIyWlLk6GJQsqaUBKTNV-1"><mxGeometry x="364" y="246" width="160" height="190" as="geometry"/></mxCell><mxCell id="265" value="-_orders_list" style="text;strokeColor=none;fillColor=none;align=left;verticalAlign=top;spacingLeft=4;spacingRight=4;overflow=hidden;rotatable=0;points=[[0,0.5],[1,0.5]];portConstraint=eastwest;" vertex="1" parent="264"><mxGeometry y="26" width="160" height="26" as="geometry"/></mxCell><mxCell id="266" value="-_order_on_hands" style="text;strokeColor=none;fillColor=none;align=left;verticalAlign=top;spacingLeft=4;spacingRight=4;overflow=hidden;rotatable=0;points=[[0,0.5],[1,0.5]];portConstraint=eastwest;" vertex="1" parent="264"><mxGeometry y="52" width="160" height="26" as="geometry"/></mxCell><mxCell id="267" value="" style="line;strokeWidth=1;fillColor=none;align=left;verticalAlign=middle;spacingTop=-1;spacingLeft=3;spacingRight=3;rotatable=0;labelPosition=right;points=[];portConstraint=eastwest;" vertex="1" parent="264"><mxGeometry y="78" width="160" height="8" as="geometry"/></mxCell><mxCell id="268" value="+take_order()" style="text;strokeColor=none;fillColor=none;align=left;verticalAlign=top;spacingLeft=4;spacingRight=4;overflow=hidden;rotatable=0;points=[[0,0.5],[1,0.5]];portConstraint=eastwest;" vertex="1" parent="264"><mxGeometry y="86" width="160" height="26" as="geometry"/></mxCell><mxCell id="269" value="+give_orders_to_chef()" style="text;strokeColor=none;fillColor=none;align=left;verticalAlign=top;spacingLeft=4;spacingRight=4;overflow=hidden;rotatable=0;points=[[0,0.5],[1,0.5]];portConstraint=eastwest;" vertex="1" parent="264"><mxGeometry y="112" width="160" height="26" as="geometry"/></mxCell><mxCell id="270" value="+take_cooked_order()" style="text;strokeColor=none;fillColor=none;align=left;verticalAlign=top;spacingLeft=4;spacingRight=4;overflow=hidden;rotatable=0;points=[[0,0.5],[1,0.5]];portConstraint=eastwest;" vertex="1" parent="264"><mxGeometry y="138" width="160" height="26" as="geometry"/></mxCell><mxCell id="271" value="+give_order_to_costumer()" style="text;strokeColor=none;fillColor=none;align=left;verticalAlign=top;spacingLeft=4;spacingRight=4;overflow=hidden;rotatable=0;points=[[0,0.5],[1,0.5]];portConstraint=eastwest;" vertex="1" parent="264"><mxGeometry y="164" width="160" height="26" as="geometry"/></mxCell><mxCell id="274" style="edgeStyle=orthogonalEdgeStyle;rounded=0;orthogonalLoop=1;jettySize=auto;html=1;entryX=0;entryY=0.25;entryDx=0;entryDy=0;endArrow=none;endFill=0;startArrow=circlePlus;startFill=0;" edge="1" parent="WIyWlLk6GJQsqaUBKTNV-1" target="21"><mxGeometry relative="1" as="geometry"><mxPoint x="550" y="92" as="sourcePoint"/><Array as="points"><mxPoint x="534" y="92"/></Array></mxGeometry></mxCell><mxCell id="275" style="edgeStyle=orthogonalEdgeStyle;rounded=0;orthogonalLoop=1;jettySize=auto;html=1;exitX=1;exitY=0.5;exitDx=0;exitDy=0;entryX=0;entryY=0.5;entryDx=0;entryDy=0;endArrow=none;endFill=0;" edge="1" parent="WIyWlLk6GJQsqaUBKTNV-1" source="266" target="26"><mxGeometry relative="1" as="geometry"/></mxCell><mxCell id="276" style="edgeStyle=orthogonalEdgeStyle;rounded=0;orthogonalLoop=1;jettySize=auto;html=1;exitX=1;exitY=0.5;exitDx=0;exitDy=0;entryX=0.526;entryY=1.033;entryDx=0;entryDy=0;entryPerimeter=0;endArrow=none;endFill=0;" edge="1" parent="WIyWlLk6GJQsqaUBKTNV-1" source="232" target="198"><mxGeometry relative="1" as="geometry"/></mxCell><mxCell id="283" style="edgeStyle=orthogonalEdgeStyle;rounded=0;orthogonalLoop=1;jettySize=auto;html=1;exitX=1;exitY=0.5;exitDx=0;exitDy=0;startArrow=none;startFill=0;endArrow=none;endFill=0;entryX=0.206;entryY=1.073;entryDx=0;entryDy=0;entryPerimeter=0;" edge="1" parent="WIyWlLk6GJQsqaUBKTNV-1" source="268" target="242"><mxGeometry relative="1" as="geometry"><mxPoint x="890" y="206" as="targetPoint"/><Array as="points"><mxPoint x="524" y="315"/><mxPoint x="890" y="315"/></Array></mxGeometry></mxCell><mxCell id="284" style="edgeStyle=orthogonalEdgeStyle;rounded=0;orthogonalLoop=1;jettySize=auto;html=1;exitX=1;exitY=0.5;exitDx=0;exitDy=0;entryX=0.644;entryY=1.038;entryDx=0;entryDy=0;entryPerimeter=0;startArrow=none;startFill=0;endArrow=none;endFill=0;" edge="1" parent="WIyWlLk6GJQsqaUBKTNV-1" source="231" target="242"><mxGeometry relative="1" as="geometry"><Array as="points"><mxPoint x="524" y="576"/><mxPoint x="960" y="576"/></Array></mxGeometry></mxCell><mxCell id="285" style="edgeStyle=orthogonalEdgeStyle;rounded=0;orthogonalLoop=1;jettySize=auto;html=1;exitX=0;exitY=0.5;exitDx=0;exitDy=0;entryX=1;entryY=0.5;entryDx=0;entryDy=0;startArrow=none;startFill=0;endArrow=block;endFill=1;" edge="1" parent="WIyWlLk6GJQsqaUBKTNV-1" source="230" target="195"><mxGeometry relative="1" as="geometry"><Array as="points"><mxPoint y="605"/><mxPoint y="84"/></Array></mxGeometry></mxCell><mxCell id="287" style="edgeStyle=orthogonalEdgeStyle;rounded=0;orthogonalLoop=1;jettySize=auto;html=1;exitX=0;exitY=0.5;exitDx=0;exitDy=0;startArrow=none;startFill=0;endArrow=none;endFill=0;" edge="1" parent="WIyWlLk6GJQsqaUBKTNV-1" source="268"><mxGeometry relative="1" as="geometry"><mxPoint y="365.3333333333335" as="targetPoint"/></mxGeometry></mxCell><mxCell id="288" style="edgeStyle=orthogonalEdgeStyle;rounded=0;orthogonalLoop=1;jettySize=auto;html=1;exitX=0;exitY=0.5;exitDx=0;exitDy=0;startArrow=none;startFill=0;endArrow=none;endFill=0;" edge="1" parent="WIyWlLk6GJQsqaUBKTNV-1" source="257"><mxGeometry relative="1" as="geometry"><mxPoint y="51" as="targetPoint"/></mxGeometry></mxCell><mxCell id="295" value="" style="endArrow=none;html=1;endSize=12;startArrow=diamondThin;startSize=14;startFill=0;edgeStyle=orthogonalEdgeStyle;align=left;verticalAlign=bottom;rounded=0;endFill=0;" edge="1" parent="WIyWlLk6GJQsqaUBKTNV-1"><mxGeometry x="-1" y="30" relative="1" as="geometry"><mxPoint x="189.99999999999997" y="-244" as="sourcePoint"/><mxPoint x="190" y="-264" as="targetPoint"/><mxPoint as="offset"/></mxGeometry></mxCell><mxCell id="296" value="" style="endArrow=none;endFill=0;endSize=12;html=1;rounded=0;" edge="1" parent="WIyWlLk6GJQsqaUBKTNV-1"><mxGeometry width="160" relative="1" as="geometry"><mxPoint x="190" y="-294" as="sourcePoint"/><mxPoint x="270" y="-294" as="targetPoint"/></mxGeometry></mxCell><mxCell id="297" value="" style="endArrow=none;endFill=0;endSize=12;html=1;rounded=0;entryX=0.423;entryY=1.078;entryDx=0;entryDy=0;entryPerimeter=0;" edge="1" parent="WIyWlLk6GJQsqaUBKTNV-1" target="58"><mxGeometry width="160" relative="1" as="geometry"><mxPoint x="269" y="-294" as="sourcePoint"/><mxPoint x="350" y="-324" as="targetPoint"/></mxGeometry></mxCell><mxCell id="298" style="edgeStyle=orthogonalEdgeStyle;rounded=0;orthogonalLoop=1;jettySize=auto;html=1;exitX=1;exitY=0.5;exitDx=0;exitDy=0;entryX=0;entryY=0.5;entryDx=0;entryDy=0;startArrow=none;startFill=0;endArrow=none;endFill=0;" edge="1" parent="WIyWlLk6GJQsqaUBKTNV-1" source="43" target="256"><mxGeometry relative="1" as="geometry"><Array as="points"><mxPoint x="320" y="-205"/><mxPoint x="320" y="25"/></Array></mxGeometry></mxCell><mxCell id="299" value="" style="endArrow=none;endFill=0;endSize=12;html=1;rounded=0;exitX=0.004;exitY=0.848;exitDx=0;exitDy=0;exitPerimeter=0;" edge="1" parent="WIyWlLk6GJQsqaUBKTNV-1" source="218"><mxGeometry width="160" relative="1" as="geometry"><mxPoint x="350" y="-264" as="sourcePoint"/><mxPoint x="320" y="-264" as="targetPoint"/></mxGeometry></mxCell><mxCell id="300" value="" style="endArrow=none;endFill=0;endSize=12;html=1;rounded=0;" edge="1" parent="WIyWlLk6GJQsqaUBKTNV-1"><mxGeometry width="160" relative="1" as="geometry"><mxPoint x="320" y="-264" as="sourcePoint"/><mxPoint x="320" y="-204" as="targetPoint"/></mxGeometry></mxCell><mxCell id="302" style="edgeStyle=orthogonalEdgeStyle;rounded=0;orthogonalLoop=1;jettySize=auto;html=1;exitX=1;exitY=0.5;exitDx=0;exitDy=0;entryX=-0.003;entryY=0.379;entryDx=0;entryDy=0;entryPerimeter=0;startArrow=none;startFill=0;endArrow=classic;endFill=1;" edge="1" parent="WIyWlLk6GJQsqaUBKTNV-1" source="51" target="58"><mxGeometry relative="1" as="geometry"/></mxCell><mxCell id="306" style="edgeStyle=orthogonalEdgeStyle;rounded=0;orthogonalLoop=1;jettySize=auto;html=1;exitX=0;exitY=0.5;exitDx=0;exitDy=0;startArrow=none;startFill=0;endArrow=block;endFill=1;entryX=0.749;entryY=1.077;entryDx=0;entryDy=0;entryPerimeter=0;" edge="1" parent="WIyWlLk6GJQsqaUBKTNV-1" source="226" target="236"><mxGeometry relative="1" as="geometry"><mxPoint x="270" y="496" as="targetPoint"/><Array as="points"><mxPoint x="270" y="551"/></Array></mxGeometry></mxCell></root></mxGraphModel></diagram></mxfile>